<mxfile host="app.diagrams.net" modified="2024-07-04T05:10:54.195Z" agent="Mozilla/5.0 (Windows NT 10.0; Win64; x64) AppleWebKit/537.36 (KHTML, like Gecko) Chrome/126.0.0.0 Safari/537.36" etag="ACUbDpvpicpy1PlG6ner" version="24.6.3" type="google">
  <diagram name="Page-1" id="JmI1VVt_zWlkhU33E5gq">
    <mxGraphModel grid="1" page="1" gridSize="10" guides="1" tooltips="1" connect="1" arrows="1" fold="1" pageScale="1" pageWidth="850" pageHeight="1100" math="0" shadow="0">
      <root>
        <mxCell id="0" />
        <mxCell id="1" parent="0" />
        <mxCell id="-61G-V2Y0YNNScueB_EZ-1" value="AWS Account" style="points=[[0,0],[0.25,0],[0.5,0],[0.75,0],[1,0],[1,0.25],[1,0.5],[1,0.75],[1,1],[0.75,1],[0.5,1],[0.25,1],[0,1],[0,0.75],[0,0.5],[0,0.25]];outlineConnect=0;gradientColor=none;html=1;whiteSpace=wrap;fontSize=12;fontStyle=0;container=1;pointerEvents=0;collapsible=0;recursiveResize=0;shape=mxgraph.aws4.group;grIcon=mxgraph.aws4.group_account;strokeColor=#CD2264;fillColor=none;verticalAlign=top;align=left;spacingLeft=30;fontColor=#CD2264;dashed=0;" vertex="1" parent="1">
          <mxGeometry x="20" y="20" width="810" height="580" as="geometry" />
        </mxCell>
        <mxCell id="-61G-V2Y0YNNScueB_EZ-2" value="VPC" style="points=[[0,0],[0.25,0],[0.5,0],[0.75,0],[1,0],[1,0.25],[1,0.5],[1,0.75],[1,1],[0.75,1],[0.5,1],[0.25,1],[0,1],[0,0.75],[0,0.5],[0,0.25]];outlineConnect=0;gradientColor=none;html=1;whiteSpace=wrap;fontSize=12;fontStyle=0;container=1;pointerEvents=0;collapsible=0;recursiveResize=0;shape=mxgraph.aws4.group;grIcon=mxgraph.aws4.group_vpc2;strokeColor=#8C4FFF;fillColor=none;verticalAlign=top;align=left;spacingLeft=30;fontColor=#AAB7B8;dashed=0;" vertex="1" parent="1">
          <mxGeometry x="60" y="60" width="720" height="470" as="geometry" />
        </mxCell>
        <mxCell id="-61G-V2Y0YNNScueB_EZ-6" value="Availability Zone" style="fillColor=none;strokeColor=#147EBA;dashed=1;verticalAlign=top;fontStyle=0;fontColor=#147EBA;whiteSpace=wrap;html=1;" vertex="1" parent="-61G-V2Y0YNNScueB_EZ-2">
          <mxGeometry x="70" y="40" width="280" height="410" as="geometry" />
        </mxCell>
        <mxCell id="-61G-V2Y0YNNScueB_EZ-18" value="Private subnet 10.0.0.0/21" style="points=[[0,0],[0.25,0],[0.5,0],[0.75,0],[1,0],[1,0.25],[1,0.5],[1,0.75],[1,1],[0.75,1],[0.5,1],[0.25,1],[0,1],[0,0.75],[0,0.5],[0,0.25]];outlineConnect=0;gradientColor=none;html=1;whiteSpace=wrap;fontSize=12;fontStyle=0;container=1;pointerEvents=0;collapsible=0;recursiveResize=0;shape=mxgraph.aws4.group;grIcon=mxgraph.aws4.group_security_group;grStroke=0;strokeColor=#00A4A6;fillColor=#E6F6F7;verticalAlign=top;align=left;spacingLeft=30;fontColor=#147EBA;dashed=0;" vertex="1" parent="-61G-V2Y0YNNScueB_EZ-2">
          <mxGeometry x="171.75" y="60" width="100" height="100" as="geometry" />
        </mxCell>
        <mxCell id="-61G-V2Y0YNNScueB_EZ-23" value="Private subnet" style="points=[[0,0],[0.25,0],[0.5,0],[0.75,0],[1,0],[1,0.25],[1,0.5],[1,0.75],[1,1],[0.75,1],[0.5,1],[0.25,1],[0,1],[0,0.75],[0,0.5],[0,0.25]];outlineConnect=0;gradientColor=none;html=1;whiteSpace=wrap;fontSize=12;fontStyle=0;container=1;pointerEvents=0;collapsible=0;recursiveResize=0;shape=mxgraph.aws4.group;grIcon=mxgraph.aws4.group_security_group;grStroke=0;strokeColor=#00A4A6;fillColor=#E6F6F7;verticalAlign=top;align=left;spacingLeft=30;fontColor=#147EBA;dashed=0;" vertex="1" parent="-61G-V2Y0YNNScueB_EZ-2">
          <mxGeometry x="170" y="200" width="100" height="100" as="geometry" />
        </mxCell>
        <mxCell id="-61G-V2Y0YNNScueB_EZ-30" value="" style="image;html=1;image=img/lib/clip_art/networking/Firewall-page1_128x128.png" vertex="1" parent="-61G-V2Y0YNNScueB_EZ-2">
          <mxGeometry x="181.75" y="240" width="80" height="60" as="geometry" />
        </mxCell>
        <mxCell id="-61G-V2Y0YNNScueB_EZ-12" value="Public subnet" style="points=[[0,0],[0.25,0],[0.5,0],[0.75,0],[1,0],[1,0.25],[1,0.5],[1,0.75],[1,1],[0.75,1],[0.5,1],[0.25,1],[0,1],[0,0.75],[0,0.5],[0,0.25]];outlineConnect=0;gradientColor=none;html=1;whiteSpace=wrap;fontSize=12;fontStyle=0;container=1;pointerEvents=0;collapsible=0;recursiveResize=0;shape=mxgraph.aws4.group;grIcon=mxgraph.aws4.group_security_group;grStroke=0;strokeColor=#7AA116;fillColor=#F2F6E8;verticalAlign=top;align=left;spacingLeft=30;fontColor=#248814;dashed=0;" vertex="1" parent="-61G-V2Y0YNNScueB_EZ-2">
          <mxGeometry x="171.75" y="320" width="100" height="130" as="geometry" />
        </mxCell>
        <mxCell id="-61G-V2Y0YNNScueB_EZ-7" value="VPC" style="points=[[0,0],[0.25,0],[0.5,0],[0.75,0],[1,0],[1,0.25],[1,0.5],[1,0.75],[1,1],[0.75,1],[0.5,1],[0.25,1],[0,1],[0,0.75],[0,0.5],[0,0.25]];outlineConnect=0;gradientColor=none;html=1;whiteSpace=wrap;fontSize=12;fontStyle=0;container=1;pointerEvents=0;collapsible=0;recursiveResize=0;shape=mxgraph.aws4.group;grIcon=mxgraph.aws4.group_vpc2;strokeColor=#8C4FFF;fillColor=none;verticalAlign=top;align=left;spacingLeft=30;fontColor=#AAB7B8;dashed=0;" vertex="1" parent="1">
          <mxGeometry x="60" y="60" width="745" height="470" as="geometry" />
        </mxCell>
        <mxCell id="-61G-V2Y0YNNScueB_EZ-9" value="Availability Zone" style="fillColor=none;strokeColor=#147EBA;dashed=1;verticalAlign=top;fontStyle=0;fontColor=#147EBA;whiteSpace=wrap;html=1;" vertex="1" parent="-61G-V2Y0YNNScueB_EZ-7">
          <mxGeometry x="400" y="40" width="280" height="410" as="geometry" />
        </mxCell>
        <mxCell id="-61G-V2Y0YNNScueB_EZ-26" value="Private subnet&lt;div&gt;10.0.0.0/21&lt;/div&gt;" style="points=[[0,0],[0.25,0],[0.5,0],[0.75,0],[1,0],[1,0.25],[1,0.5],[1,0.75],[1,1],[0.75,1],[0.5,1],[0.25,1],[0,1],[0,0.75],[0,0.5],[0,0.25]];outlineConnect=0;gradientColor=none;html=1;whiteSpace=wrap;fontSize=12;fontStyle=0;container=1;pointerEvents=0;collapsible=0;recursiveResize=0;shape=mxgraph.aws4.group;grIcon=mxgraph.aws4.group_security_group;grStroke=0;strokeColor=#00A4A6;fillColor=#E6F6F7;verticalAlign=top;align=left;spacingLeft=30;fontColor=#147EBA;dashed=0;" vertex="1" parent="-61G-V2Y0YNNScueB_EZ-7">
          <mxGeometry x="505" y="60" width="100" height="100" as="geometry" />
        </mxCell>
        <mxCell id="-61G-V2Y0YNNScueB_EZ-29" value="" style="outlineConnect=0;dashed=0;verticalLabelPosition=bottom;verticalAlign=top;align=center;html=1;shape=mxgraph.aws3.ec2;fillColor=#F58534;gradientColor=none;" vertex="1" parent="-61G-V2Y0YNNScueB_EZ-26">
          <mxGeometry x="19.25" y="50" width="61.5" height="43" as="geometry" />
        </mxCell>
        <mxCell id="-61G-V2Y0YNNScueB_EZ-27" value="Private subnet" style="points=[[0,0],[0.25,0],[0.5,0],[0.75,0],[1,0],[1,0.25],[1,0.5],[1,0.75],[1,1],[0.75,1],[0.5,1],[0.25,1],[0,1],[0,0.75],[0,0.5],[0,0.25]];outlineConnect=0;gradientColor=none;html=1;whiteSpace=wrap;fontSize=12;fontStyle=0;container=1;pointerEvents=0;collapsible=0;recursiveResize=0;shape=mxgraph.aws4.group;grIcon=mxgraph.aws4.group_security_group;grStroke=0;strokeColor=#00A4A6;fillColor=#E6F6F7;verticalAlign=top;align=left;spacingLeft=30;fontColor=#147EBA;dashed=0;" vertex="1" parent="-61G-V2Y0YNNScueB_EZ-7">
          <mxGeometry x="510" y="180" width="90" height="110" as="geometry" />
        </mxCell>
        <mxCell id="-61G-V2Y0YNNScueB_EZ-31" value="" style="image;html=1;image=img/lib/clip_art/networking/Firewall-page1_128x128.png" vertex="1" parent="-61G-V2Y0YNNScueB_EZ-27">
          <mxGeometry x="5" y="45" width="80" height="60" as="geometry" />
        </mxCell>
        <mxCell id="-61G-V2Y0YNNScueB_EZ-55" value="" style="edgeStyle=orthogonalEdgeStyle;rounded=0;orthogonalLoop=1;jettySize=auto;html=1;" edge="1" parent="-61G-V2Y0YNNScueB_EZ-7" source="-61G-V2Y0YNNScueB_EZ-29" target="-61G-V2Y0YNNScueB_EZ-31">
          <mxGeometry relative="1" as="geometry" />
        </mxCell>
        <mxCell id="-61G-V2Y0YNNScueB_EZ-40" style="edgeStyle=orthogonalEdgeStyle;rounded=0;orthogonalLoop=1;jettySize=auto;html=1;" edge="1" parent="-61G-V2Y0YNNScueB_EZ-7" source="-61G-V2Y0YNNScueB_EZ-34">
          <mxGeometry relative="1" as="geometry">
            <mxPoint x="365" y="-192.4000244140625" as="targetPoint" />
          </mxGeometry>
        </mxCell>
        <mxCell id="-61G-V2Y0YNNScueB_EZ-45" style="edgeStyle=orthogonalEdgeStyle;rounded=0;orthogonalLoop=1;jettySize=auto;html=1;" edge="1" parent="-61G-V2Y0YNNScueB_EZ-7" source="-61G-V2Y0YNNScueB_EZ-34">
          <mxGeometry relative="1" as="geometry">
            <mxPoint x="365" y="260" as="targetPoint" />
          </mxGeometry>
        </mxCell>
        <mxCell id="-61G-V2Y0YNNScueB_EZ-34" value="Internet&#xa;gateway" style="sketch=0;outlineConnect=0;fontColor=#232F3E;gradientColor=none;strokeColor=#232F3E;fillColor=#ffffff;dashed=0;verticalLabelPosition=bottom;verticalAlign=top;align=center;html=1;fontSize=12;fontStyle=0;aspect=fixed;shape=mxgraph.aws4.resourceIcon;resIcon=mxgraph.aws4.internet_gateway;" vertex="1" parent="-61G-V2Y0YNNScueB_EZ-7">
          <mxGeometry x="345" y="-20" width="40" height="40" as="geometry" />
        </mxCell>
        <mxCell id="-61G-V2Y0YNNScueB_EZ-43" style="edgeStyle=orthogonalEdgeStyle;rounded=0;orthogonalLoop=1;jettySize=auto;html=1;" edge="1" parent="-61G-V2Y0YNNScueB_EZ-7" source="-61G-V2Y0YNNScueB_EZ-17" target="-61G-V2Y0YNNScueB_EZ-34">
          <mxGeometry relative="1" as="geometry">
            <mxPoint x="370" y="60" as="targetPoint" />
            <Array as="points" />
          </mxGeometry>
        </mxCell>
        <mxCell id="-61G-V2Y0YNNScueB_EZ-17" value="Public subnet" style="points=[[0,0],[0.25,0],[0.5,0],[0.75,0],[1,0],[1,0.25],[1,0.5],[1,0.75],[1,1],[0.75,1],[0.5,1],[0.25,1],[0,1],[0,0.75],[0,0.5],[0,0.25]];outlineConnect=0;gradientColor=none;html=1;whiteSpace=wrap;fontSize=12;fontStyle=0;container=1;pointerEvents=0;collapsible=0;recursiveResize=0;shape=mxgraph.aws4.group;grIcon=mxgraph.aws4.group_security_group;grStroke=0;strokeColor=#7AA116;fillColor=#F2F6E8;verticalAlign=top;align=left;spacingLeft=30;fontColor=#248814;dashed=0;" vertex="1" parent="-61G-V2Y0YNNScueB_EZ-7">
          <mxGeometry x="515" y="305" width="90" height="120" as="geometry" />
        </mxCell>
        <mxCell id="-61G-V2Y0YNNScueB_EZ-33" value="" style="sketch=0;outlineConnect=0;fontColor=#232F3E;gradientColor=none;fillColor=#8C4FFF;strokeColor=none;dashed=0;verticalLabelPosition=bottom;verticalAlign=top;align=center;html=1;fontSize=12;fontStyle=0;aspect=fixed;pointerEvents=1;shape=mxgraph.aws4.nat_gateway;" vertex="1" parent="-61G-V2Y0YNNScueB_EZ-17">
          <mxGeometry x="26" y="41" width="38" height="38" as="geometry" />
        </mxCell>
        <mxCell id="-61G-V2Y0YNNScueB_EZ-32" value="" style="sketch=0;outlineConnect=0;fontColor=#232F3E;gradientColor=none;fillColor=#8C4FFF;strokeColor=none;dashed=0;verticalLabelPosition=bottom;verticalAlign=top;align=center;html=1;fontSize=12;fontStyle=0;aspect=fixed;pointerEvents=1;shape=mxgraph.aws4.nat_gateway;" vertex="1" parent="-61G-V2Y0YNNScueB_EZ-7">
          <mxGeometry x="201" y="346" width="38" height="38" as="geometry" />
        </mxCell>
        <mxCell id="-61G-V2Y0YNNScueB_EZ-42" style="edgeStyle=orthogonalEdgeStyle;rounded=0;orthogonalLoop=1;jettySize=auto;html=1;" edge="1" parent="-61G-V2Y0YNNScueB_EZ-7" source="-61G-V2Y0YNNScueB_EZ-32" target="-61G-V2Y0YNNScueB_EZ-34">
          <mxGeometry relative="1" as="geometry" />
        </mxCell>
        <mxCell id="-61G-V2Y0YNNScueB_EZ-53" value="" style="edgeStyle=orthogonalEdgeStyle;rounded=0;orthogonalLoop=1;jettySize=auto;html=1;" edge="1" parent="-61G-V2Y0YNNScueB_EZ-7" source="-61G-V2Y0YNNScueB_EZ-31" target="-61G-V2Y0YNNScueB_EZ-33">
          <mxGeometry relative="1" as="geometry" />
        </mxCell>
        <mxCell id="-61G-V2Y0YNNScueB_EZ-56" style="edgeStyle=orthogonalEdgeStyle;rounded=0;orthogonalLoop=1;jettySize=auto;html=1;" edge="1" parent="-61G-V2Y0YNNScueB_EZ-7" source="-61G-V2Y0YNNScueB_EZ-33" target="-61G-V2Y0YNNScueB_EZ-34">
          <mxGeometry relative="1" as="geometry" />
        </mxCell>
        <mxCell id="-61G-V2Y0YNNScueB_EZ-28" value="" style="outlineConnect=0;dashed=0;verticalLabelPosition=bottom;verticalAlign=top;align=center;html=1;shape=mxgraph.aws3.ec2;fillColor=#F58534;gradientColor=none;" vertex="1" parent="-61G-V2Y0YNNScueB_EZ-7">
          <mxGeometry x="192.63" y="110" width="58.25" height="43" as="geometry" />
        </mxCell>
        <mxCell id="-61G-V2Y0YNNScueB_EZ-58" value="" style="edgeStyle=orthogonalEdgeStyle;rounded=0;orthogonalLoop=1;jettySize=auto;html=1;" edge="1" parent="-61G-V2Y0YNNScueB_EZ-7" source="-61G-V2Y0YNNScueB_EZ-57" target="-61G-V2Y0YNNScueB_EZ-28">
          <mxGeometry relative="1" as="geometry" />
        </mxCell>
        <mxCell id="-61G-V2Y0YNNScueB_EZ-57" value="" style="outlineConnect=0;dashed=0;verticalLabelPosition=bottom;verticalAlign=top;align=center;html=1;shape=mxgraph.aws3.route_table;fillColor=#F58536;gradientColor=none;" vertex="1" parent="-61G-V2Y0YNNScueB_EZ-7">
          <mxGeometry y="75.5" width="75" height="69" as="geometry" />
        </mxCell>
        <mxCell id="-61G-V2Y0YNNScueB_EZ-59" value="" style="outlineConnect=0;dashed=0;verticalLabelPosition=bottom;verticalAlign=top;align=center;html=1;shape=mxgraph.aws3.route_table;fillColor=#F58536;gradientColor=none;" vertex="1" parent="-61G-V2Y0YNNScueB_EZ-7">
          <mxGeometry x="10" y="210.5" width="75" height="69" as="geometry" />
        </mxCell>
        <mxCell id="-61G-V2Y0YNNScueB_EZ-68" style="edgeStyle=orthogonalEdgeStyle;rounded=0;orthogonalLoop=1;jettySize=auto;html=1;" edge="1" parent="-61G-V2Y0YNNScueB_EZ-7" source="-61G-V2Y0YNNScueB_EZ-60" target="-61G-V2Y0YNNScueB_EZ-32">
          <mxGeometry relative="1" as="geometry" />
        </mxCell>
        <mxCell id="-61G-V2Y0YNNScueB_EZ-60" value="" style="outlineConnect=0;dashed=0;verticalLabelPosition=bottom;verticalAlign=top;align=center;html=1;shape=mxgraph.aws3.route_table;fillColor=#F58536;gradientColor=none;" vertex="1" parent="-61G-V2Y0YNNScueB_EZ-7">
          <mxGeometry x="10" y="360" width="75" height="69" as="geometry" />
        </mxCell>
        <mxCell id="-61G-V2Y0YNNScueB_EZ-67" style="edgeStyle=orthogonalEdgeStyle;rounded=0;orthogonalLoop=1;jettySize=auto;html=1;" edge="1" parent="-61G-V2Y0YNNScueB_EZ-7" source="-61G-V2Y0YNNScueB_EZ-61" target="-61G-V2Y0YNNScueB_EZ-31">
          <mxGeometry relative="1" as="geometry" />
        </mxCell>
        <mxCell id="-61G-V2Y0YNNScueB_EZ-61" value="" style="outlineConnect=0;dashed=0;verticalLabelPosition=bottom;verticalAlign=top;align=center;html=1;shape=mxgraph.aws3.route_table;fillColor=#F58536;gradientColor=none;" vertex="1" parent="-61G-V2Y0YNNScueB_EZ-7">
          <mxGeometry x="670" y="210.5" width="75" height="69" as="geometry" />
        </mxCell>
        <mxCell id="-61G-V2Y0YNNScueB_EZ-64" value="" style="edgeStyle=orthogonalEdgeStyle;rounded=0;orthogonalLoop=1;jettySize=auto;html=1;" edge="1" parent="-61G-V2Y0YNNScueB_EZ-7" source="-61G-V2Y0YNNScueB_EZ-62" target="-61G-V2Y0YNNScueB_EZ-33">
          <mxGeometry relative="1" as="geometry" />
        </mxCell>
        <mxCell id="-61G-V2Y0YNNScueB_EZ-62" value="" style="outlineConnect=0;dashed=0;verticalLabelPosition=bottom;verticalAlign=top;align=center;html=1;shape=mxgraph.aws3.route_table;fillColor=#F58536;gradientColor=none;" vertex="1" parent="-61G-V2Y0YNNScueB_EZ-7">
          <mxGeometry x="670" y="330.5" width="75" height="69" as="geometry" />
        </mxCell>
        <mxCell id="-61G-V2Y0YNNScueB_EZ-37" style="edgeStyle=orthogonalEdgeStyle;rounded=0;orthogonalLoop=1;jettySize=auto;html=1;" edge="1" parent="1" source="-61G-V2Y0YNNScueB_EZ-35" target="-61G-V2Y0YNNScueB_EZ-34">
          <mxGeometry relative="1" as="geometry">
            <mxPoint x="420" as="targetPoint" />
            <Array as="points">
              <mxPoint x="425" y="-90" />
              <mxPoint x="425" y="-90" />
            </Array>
          </mxGeometry>
        </mxCell>
        <mxCell id="-61G-V2Y0YNNScueB_EZ-35" value="" style="image;aspect=fixed;perimeter=ellipsePerimeter;html=1;align=center;shadow=0;dashed=0;spacingTop=3;image=img/lib/active_directory/internet_globe.svg;" vertex="1" parent="1">
          <mxGeometry x="395" y="-180" width="50" height="50" as="geometry" />
        </mxCell>
        <mxCell id="-61G-V2Y0YNNScueB_EZ-52" value="" style="edgeStyle=orthogonalEdgeStyle;rounded=0;orthogonalLoop=1;jettySize=auto;html=1;" edge="1" parent="1" source="-61G-V2Y0YNNScueB_EZ-30" target="-61G-V2Y0YNNScueB_EZ-32">
          <mxGeometry relative="1" as="geometry" />
        </mxCell>
        <mxCell id="-61G-V2Y0YNNScueB_EZ-48" value="" style="edgeStyle=orthogonalEdgeStyle;rounded=0;orthogonalLoop=1;jettySize=auto;html=1;" edge="1" parent="1" source="-61G-V2Y0YNNScueB_EZ-28" target="-61G-V2Y0YNNScueB_EZ-30">
          <mxGeometry relative="1" as="geometry" />
        </mxCell>
        <mxCell id="-61G-V2Y0YNNScueB_EZ-63" value="" style="outlineConnect=0;dashed=0;verticalLabelPosition=bottom;verticalAlign=top;align=center;html=1;shape=mxgraph.aws3.route_table;fillColor=#F58536;gradientColor=none;" vertex="1" parent="1">
          <mxGeometry x="750" y="155.5" width="75" height="69" as="geometry" />
        </mxCell>
        <mxCell id="-61G-V2Y0YNNScueB_EZ-66" style="edgeStyle=orthogonalEdgeStyle;rounded=0;orthogonalLoop=1;jettySize=auto;html=1;entryX=1;entryY=0.5;entryDx=0;entryDy=0;entryPerimeter=0;" edge="1" parent="1" source="-61G-V2Y0YNNScueB_EZ-63" target="-61G-V2Y0YNNScueB_EZ-29">
          <mxGeometry relative="1" as="geometry" />
        </mxCell>
        <mxCell id="-61G-V2Y0YNNScueB_EZ-69" style="edgeStyle=orthogonalEdgeStyle;rounded=0;orthogonalLoop=1;jettySize=auto;html=1;" edge="1" parent="1" source="-61G-V2Y0YNNScueB_EZ-59" target="-61G-V2Y0YNNScueB_EZ-30">
          <mxGeometry relative="1" as="geometry" />
        </mxCell>
      </root>
    </mxGraphModel>
  </diagram>
</mxfile>
